<?xml version="1.0" encoding="utf-8"?><!-- Uploaded to: SVG Repo, www.svgrepo.com, Generator: SVG Repo Mixer Tools -->
<svg width="800px" height="800px" viewBox="0 0 24 24" fill="none" xmlns="http://www.w3.org/2000/svg">
<path fill-rule="evenodd" clip-rule="evenodd" d="M9.06854 4.95331C9.11355 4.2452 8.40337 3.75898 7.85133 4.20473C5.53866 6.07211 4.43027 9.93002 5.46436 13.7893C6.56631 17.9018 9.74458 20.6867 12.867 20.8262C13.3993 20.85 13.7874 20.3471 13.8687 19.8206C13.9309 19.4177 14.0266 19.0103 14.0708 18.6494C14.2422 17.2498 13.8891 15.8432 13.0771 14.6912L10.2394 10.665C9.32756 9.37129 8.88688 7.81131 8.98724 6.23237L9.06854 4.95331ZM15.5049 20.5061C15.5204 20.5802 15.5984 20.5734 15.667 20.5413C18.6898 19.1285 19.6338 14.7423 18.4464 10.3108C17.3833 6.34333 14.8007 3.61212 11.8894 3.29868C11.265 3.23146 10.8124 3.91115 10.7644 4.53725C10.7108 5.23582 10.5427 5.99084 10.5085 6.52896C10.4264 7.82082 10.7869 9.09717 11.533 10.1557L14.3707 14.1818C15.3631 15.5898 15.7947 17.309 15.5852 19.0197C15.4665 19.989 15.4751 20.3635 15.5049 20.5061Z" fill="#8E9100" stroke="#262F0C"/>
</svg>